<svg width="62" height="63" viewBox="0 0 62 63" fill="none" xmlns="http://www.w3.org/2000/svg">
<path d="M30.9868 62.1542C29.8183 62.1488 28.6656 61.8845 27.6115 61.3801C26.5574 60.8758 25.6283 60.144 24.891 59.2375L22.3243 56.3208C21.9564 55.8915 21.493 55.5544 20.9713 55.3366C20.4496 55.1188 19.8841 55.0264 19.3201 55.0667L15.3826 55.4167C14.2237 55.5144 13.0574 55.359 11.9645 54.9611C10.8716 54.5633 9.87831 53.9325 9.05348 53.1125C8.23306 52.2868 7.60002 51.2942 7.1974 50.2021C6.79478 49.11 6.632 47.944 6.72015 46.7833L7.04098 42.7292C7.05759 42.1781 6.95099 41.6304 6.72898 41.1258C6.50696 40.6212 6.17511 40.1725 5.75765 39.8125L2.84098 37.275C1.95103 36.5248 1.23569 35.5893 0.744968 34.5339C0.254249 33.4784 0 32.3285 0 31.1646C0 30.0006 0.254249 28.8507 0.744968 27.7953C1.23569 26.7398 1.95103 25.8043 2.84098 25.0542L5.75765 22.4875C6.19427 22.1078 6.53341 21.6288 6.74657 21.0908C6.95972 20.5528 7.04068 19.9716 6.98265 19.3958L6.63265 15.4583C6.54264 14.3 6.70171 13.1359 7.09915 12.0442C7.4966 10.9525 8.1232 9.95851 8.93682 9.12917C9.75788 8.30233 10.7498 7.66506 11.8431 7.26199C12.9365 6.85893 14.1047 6.69982 15.266 6.79583L19.3201 7.11667C19.8723 7.14191 20.4228 7.03921 20.9288 6.8166C21.4347 6.59399 21.8824 6.25748 22.2368 5.83333L24.7743 2.91667C25.5157 2.01475 26.4456 1.28622 27.4988 0.782315C28.5519 0.278413 29.7027 0.0113801 30.8701 0C32.0386 0.00534783 33.1914 0.269706 34.2455 0.774042C35.2995 1.27838 36.2287 2.01015 36.966 2.91667L39.5326 5.83333C39.9184 6.27041 40.4026 6.60945 40.9452 6.82245C41.4879 7.03545 42.0734 7.11631 42.6535 7.05833L46.591 6.70833C47.7681 6.59543 48.9557 6.7442 50.0686 7.14401C51.1815 7.54381 52.1922 8.18476 53.0284 9.02094C53.8646 9.85712 54.5055 10.8679 54.9053 11.9808C55.3051 13.0937 55.4539 14.2812 55.341 15.4583L54.9326 19.3958C54.916 19.9469 55.0226 20.4946 55.2447 20.9992C55.4667 21.5038 55.7985 21.9525 56.216 22.3125L59.1326 24.85C60.0226 25.6002 60.7379 26.5357 61.2287 27.5911C61.7194 28.6466 61.9736 29.7965 61.9736 30.9604C61.9736 32.1244 61.7194 33.2743 61.2287 34.3297C60.7379 35.3851 60.0226 36.3207 59.1326 37.0708L56.216 39.6375C55.7794 40.0172 55.4402 40.4962 55.2271 41.0342C55.0139 41.5722 54.9329 42.1534 54.991 42.7292L55.341 46.6667C55.431 47.825 55.2719 48.9891 54.8745 50.0808C54.477 51.1725 53.8504 52.1665 53.0368 52.9958C52.2157 53.8227 51.2238 54.4599 50.1305 54.863C49.0372 55.2661 47.8689 55.4252 46.7076 55.3292L42.6535 55.0083C42.1025 54.9917 41.5547 55.0983 41.0501 55.3203C40.5455 55.5424 40.0968 55.8742 39.7368 56.2917L37.1993 59.2083C36.458 60.1102 35.528 60.8388 34.4748 61.3427C33.4217 61.8466 32.2709 62.1136 31.1035 62.125L30.9868 62.1542ZM19.6118 50.6917C20.7789 50.705 21.929 50.9729 22.9819 51.4767C24.0347 51.9804 24.965 52.7079 25.7076 53.6083L28.2743 56.525C28.6146 56.928 29.039 57.2517 29.5176 57.4734C29.9963 57.6951 30.5177 57.8094 31.0451 57.8083C31.6006 57.8371 32.1549 57.733 32.6622 57.5047C33.1694 57.2765 33.6149 56.9306 33.9618 56.4958L36.4993 53.5792C37.3104 52.5857 38.3487 51.8021 39.5264 51.2944C40.7042 50.7868 41.9868 50.57 43.266 50.6625L47.2035 50.9542C47.7375 51.0127 48.2778 50.9485 48.7833 50.7665C49.2887 50.5846 49.746 50.2896 50.1201 49.9042C50.4987 49.525 50.7891 49.0671 50.9706 48.563C51.1521 48.0589 51.2202 47.5209 51.1702 46.9875L50.8493 43.0792C50.7544 41.7997 50.97 40.5163 51.4778 39.3381C51.9857 38.16 52.7706 37.122 53.766 36.3125L56.6826 33.7458C57.0857 33.4055 57.4094 32.9811 57.6311 32.5025C57.8528 32.0238 57.9671 31.5025 57.966 30.975C57.9947 30.4195 57.8906 29.8652 57.6624 29.358C57.4341 28.8507 57.0883 28.4052 56.6535 28.0583L53.7368 25.5208C52.7452 24.7081 51.9629 23.6696 51.4555 22.4923C50.948 21.3149 50.7301 20.0331 50.8201 18.7542L51.1118 14.8167C51.1567 14.2896 51.0855 13.759 50.9031 13.2624C50.7206 12.7659 50.4315 12.3154 50.0561 11.9427C49.6806 11.57 49.228 11.2842 48.73 11.1055C48.2321 10.9268 47.7011 10.8595 47.1743 10.9083L43.266 11.2292C41.9863 11.3266 40.7021 11.1121 39.5235 10.6041C38.3449 10.0961 37.3072 9.30973 36.4993 8.3125L33.9326 5.39583C33.5515 5.01154 33.0889 4.71769 32.5791 4.53596C32.0692 4.35424 31.5251 4.28926 30.9868 4.34583C30.4313 4.31711 29.877 4.42119 29.3698 4.64944C28.8626 4.87769 28.417 5.22354 28.0701 5.65833L25.5326 8.575C24.7153 9.56103 23.6759 10.3394 22.4998 10.8464C21.3236 11.3533 20.0441 11.5745 18.766 11.4917L14.8285 11.2C14.2945 11.1415 13.7541 11.2057 13.2487 11.3876C12.7432 11.5696 12.286 11.8645 11.9118 12.25C11.5332 12.6291 11.2429 13.0871 11.0614 13.5912C10.8799 14.0953 10.8118 14.6332 10.8618 15.1667L11.1826 19.075C11.2776 20.3544 11.062 21.6379 10.5541 22.816C10.0463 23.9942 9.26131 25.0322 8.26598 25.8417L5.34932 28.4083C4.94628 28.7487 4.62257 29.173 4.40088 29.6517C4.17919 30.1303 4.06488 30.6517 4.06598 31.1792C4.03726 31.7346 4.14134 32.289 4.36959 32.7962C4.59784 33.3034 4.94369 33.7489 5.37848 34.0958L8.29515 36.6333C9.28672 37.446 10.069 38.4846 10.5765 39.6619C11.084 40.8393 11.3018 42.1211 11.2118 43.4L10.9201 47.3375C10.8752 47.8646 10.9465 48.3951 11.1289 48.8917C11.3113 49.3883 11.6004 49.8388 11.9759 50.2115C12.3514 50.5841 12.804 50.8699 13.3019 51.0486C13.7998 51.2274 14.3309 51.2947 14.8576 51.2458L18.766 50.925L19.6118 50.6917Z" fill="white"/>
<path d="M30.9868 42.0001C28.086 42.0001 25.304 40.8478 23.2528 38.7966C21.2017 36.7454 20.0493 33.9634 20.0493 31.0626C20.0493 28.1618 21.2017 25.3798 23.2528 23.3286C25.304 21.2775 28.086 20.1251 30.9868 20.1251C33.8876 20.1251 36.6696 21.2775 38.7208 23.3286C40.772 25.3798 41.9243 28.1618 41.9243 31.0626C41.9243 33.9634 40.772 36.7454 38.7208 38.7966C36.6696 40.8478 33.8876 42.0001 30.9868 42.0001ZM30.9868 24.5001C29.2463 24.5001 27.5771 25.1915 26.3464 26.4222C25.1157 27.6529 24.4243 29.3221 24.4243 31.0626C24.4243 32.8031 25.1157 34.4723 26.3464 35.703C27.5771 36.9337 29.2463 37.6251 30.9868 37.6251C32.7273 37.6251 34.3965 36.9337 35.6272 35.703C36.8579 34.4723 37.5493 32.8031 37.5493 31.0626C37.5493 29.3221 36.8579 27.6529 35.6272 26.4222C34.3965 25.1915 32.7273 24.5001 30.9868 24.5001Z" fill="white"/>
</svg>
