<svg width="47" height="59" viewBox="0 0 47 59" fill="none" xmlns="http://www.w3.org/2000/svg">
<path d="M40.8333 32.6083V23.3333C40.8291 19.2008 39.3626 15.203 36.6935 12.0481C34.0243 8.89315 30.3248 6.78459 26.25 6.09583V2.91667C26.25 2.14312 25.9427 1.40125 25.3957 0.854272C24.8487 0.307291 24.1069 0 23.3333 0C22.5598 0 21.8179 0.307291 21.2709 0.854272C20.724 1.40125 20.4167 2.14312 20.4167 2.91667V6.09583C16.3419 6.78459 12.6424 8.89315 9.97321 12.0481C7.30405 15.203 5.83752 19.2008 5.83333 23.3333V32.6083C4.13131 33.2101 2.65708 34.3235 1.61274 35.7961C0.568396 37.2686 0.00507357 39.0281 0 40.8333V46.6667C0 47.4402 0.307291 48.1821 0.854272 48.7291C1.40125 49.276 2.14312 49.5833 2.91667 49.5833H12.075C12.7467 52.0548 14.2129 54.2366 16.2476 55.7921C18.2822 57.3477 20.7722 58.1904 23.3333 58.1904C25.8945 58.1904 28.3844 57.3477 30.4191 55.7921C32.4537 54.2366 33.92 52.0548 34.5917 49.5833H43.75C44.5235 49.5833 45.2654 49.276 45.8124 48.7291C46.3594 48.1821 46.6667 47.4402 46.6667 46.6667V40.8333C46.6616 39.0281 46.0983 37.2686 45.0539 35.7961C44.0096 34.3235 42.5354 33.2101 40.8333 32.6083ZM11.6667 23.3333C11.6667 20.2391 12.8958 17.2717 15.0838 15.0838C17.2717 12.8958 20.2391 11.6667 23.3333 11.6667C26.4275 11.6667 29.395 12.8958 31.5829 15.0838C33.7708 17.2717 35 20.2391 35 23.3333V32.0833H11.6667V23.3333ZM23.3333 52.5C22.3153 52.4939 21.3167 52.2214 20.4366 51.7097C19.5565 51.1981 18.8257 50.465 18.3167 49.5833H28.35C27.841 50.465 27.1102 51.1981 26.2301 51.7097C25.35 52.2214 24.3513 52.4939 23.3333 52.5ZM40.8333 43.75H5.83333V40.8333C5.83333 40.0598 6.14062 39.3179 6.68761 38.7709C7.23459 38.224 7.97645 37.9167 8.75 37.9167H37.9167C38.6902 37.9167 39.4321 38.224 39.9791 38.7709C40.526 39.3179 40.8333 40.0598 40.8333 40.8333V43.75Z" fill="white"/>
</svg>
